# xmcd
#
# Track frame offsets:
#	150
#	16507
#	33066
#	53432
#	68506
#	82999
#
# Disc length: 1338 seconds
#
# Revision: 1
# Processed by: cddbd v1.5.2PL0 Copyright (c) Steve Scherf et al.
# Submitted via: audiograbber 1.83.01
#
DISCID=2d053806
DTITLE=dayinthelife - dayinthelife
DYEAR=2005
DGENRE=Blues - Classic Rock
TTITLE0=Memories
TTITLE1=I'll Follow You
TTITLE2=Where's Your Imagination
TTITLE3=Running Scared
TTITLE4=I Wanna Run
TTITLE5=Raining For Days
EXTD=
EXTT0=
EXTT1=
EXTT2=
EXTT3=
EXTT4=
EXTT5=
PLAYORDER=
